<?xml version="1.0" encoding="UTF-8"?>
<!DOCTYPE svg PUBLIC "-//W3C//DTD SVG 1.1//EN" "http://www.w3.org/Graphics/SVG/1.1/DTD/svg11.dtd">
<svg version="1.2" width="210mm" height="297mm" viewBox="0 0 21000 29700" preserveAspectRatio="xMidYMid" fill-rule="evenodd" clip-path="url(#presentation_clip_path)" stroke-width="28.222" stroke-linejoin="round" xmlns="http://www.w3.org/2000/svg" xmlns:ooo="http://xml.openoffice.org/svg/export" xmlns:xlink="http://www.w3.org/1999/xlink" xml:space="preserve">
 <defs class="ClipPathGroup">
  <clipPath id="presentation_clip_path" clipPathUnits="userSpaceOnUse">
   <rect x="0" y="0" width="21000" height="29700"/>
  </clipPath>
 </defs>
 <defs class="TextShapeIndex">
  <g ooo:slide="id1" ooo:id-list="id3 id4 id5 id6 id7 id8 id9 id10 id11 id12 id13 id14 id15 id16 id17 id18 id19"/>
 </defs>
 <defs class="EmbeddedBulletChars">
  <g id="bullet-char-template(57356)" transform="scale(0.00048828125,-0.00048828125)">
   <path d="M 580,1141 L 1163,571 580,0 -4,571 580,1141 Z"/>
  </g>
  <g id="bullet-char-template(57354)" transform="scale(0.00048828125,-0.00048828125)">
   <path d="M 8,1128 L 1137,1128 1137,0 8,0 8,1128 Z"/>
  </g>
  <g id="bullet-char-template(10146)" transform="scale(0.00048828125,-0.00048828125)">
   <path d="M 174,0 L 602,739 174,1481 1456,739 174,0 Z M 1358,739 L 309,1346 659,739 1358,739 Z"/>
  </g>
  <g id="bullet-char-template(10132)" transform="scale(0.00048828125,-0.00048828125)">
   <path d="M 2015,739 L 1276,0 717,0 1260,543 174,543 174,936 1260,936 717,1481 1274,1481 2015,739 Z"/>
  </g>
  <g id="bullet-char-template(10007)" transform="scale(0.00048828125,-0.00048828125)">
   <path d="M 0,-2 C -7,14 -16,27 -25,37 L 356,567 C 262,823 215,952 215,954 215,979 228,992 255,992 264,992 276,990 289,987 310,991 331,999 354,1012 L 381,999 492,748 772,1049 836,1024 860,1049 C 881,1039 901,1025 922,1006 886,937 835,863 770,784 769,783 710,716 594,584 L 774,223 C 774,196 753,168 711,139 L 727,119 C 717,90 699,76 672,76 641,76 570,178 457,381 L 164,-76 C 142,-110 111,-127 72,-127 30,-127 9,-110 8,-76 1,-67 -2,-52 -2,-32 -2,-23 -1,-13 0,-2 Z"/>
  </g>
  <g id="bullet-char-template(10004)" transform="scale(0.00048828125,-0.00048828125)">
   <path d="M 285,-33 C 182,-33 111,30 74,156 52,228 41,333 41,471 41,549 55,616 82,672 116,743 169,778 240,778 293,778 328,747 346,684 L 369,508 C 377,444 397,411 428,410 L 1163,1116 C 1174,1127 1196,1133 1229,1133 1271,1133 1292,1118 1292,1087 L 1292,965 C 1292,929 1282,901 1262,881 L 442,47 C 390,-6 338,-33 285,-33 Z"/>
  </g>
  <g id="bullet-char-template(9679)" transform="scale(0.00048828125,-0.00048828125)">
   <path d="M 813,0 C 632,0 489,54 383,161 276,268 223,411 223,592 223,773 276,916 383,1023 489,1130 632,1184 813,1184 992,1184 1136,1130 1245,1023 1353,916 1407,772 1407,592 1407,412 1353,268 1245,161 1136,54 992,0 813,0 Z"/>
  </g>
  <g id="bullet-char-template(8226)" transform="scale(0.00048828125,-0.00048828125)">
   <path d="M 346,457 C 273,457 209,483 155,535 101,586 74,649 74,723 74,796 101,859 155,911 209,963 273,989 346,989 419,989 480,963 531,910 582,859 608,796 608,723 608,648 583,586 532,535 482,483 420,457 346,457 Z"/>
  </g>
  <g id="bullet-char-template(8211)" transform="scale(0.00048828125,-0.00048828125)">
   <path d="M -4,459 L 1135,459 1135,606 -4,606 -4,459 Z"/>
  </g>
 </defs>
 <defs class="TextEmbeddedBitmaps"/>
 <g>
  <g id="id2" class="Master_Slide">
   <g id="bg-id2" class="Background"/>
   <g id="bo-id2" class="BackgroundObjects"/>
  </g>
 </g>
 <g class="SlideGroup">
  <g>
   <g id="id1" class="Slide" clip-path="url(#presentation_clip_path)">
    <g class="Page">
     <g class="com.sun.star.drawing.CustomShape">
      <g id="id3">
       <path fill="rgb(238,238,238)" stroke="none" d="M 2618,2960 C 2484,2960 2350,3094 2350,3228 L 2350,4302 C 2350,4436 2484,4571 2618,4571 L 4532,4571 C 4666,4571 4800,4436 4800,4302 L 4800,3228 C 4800,3094 4666,2960 4532,2960 L 2618,2960 Z M 2350,2960 L 2350,2960 Z M 4801,4571 L 4801,4571 Z"/>
       <path fill="none" stroke="rgb(0,0,0)" d="M 2618,2960 C 2484,2960 2350,3094 2350,3228 L 2350,4302 C 2350,4436 2484,4571 2618,4571 L 4532,4571 C 4666,4571 4800,4436 4800,4302 L 4800,3228 C 4800,3094 4666,2960 4532,2960 L 2618,2960 Z"/>
       <path fill="none" stroke="rgb(0,0,0)" d="M 2350,2960 L 2350,2960 Z"/>
       <path fill="none" stroke="rgb(0,0,0)" d="M 4801,4571 L 4801,4571 Z"/>
       <text class="TextShape"><tspan class="TextParagraph" font-family="Liberation Sans, sans-serif" font-size="423px" font-weight="700"><tspan class="TextPosition" x="2726" y="3913"><tspan fill="rgb(0,0,0)" stroke="none">Browser</tspan></tspan></tspan></text>
      </g>
     </g>
     <g class="com.sun.star.drawing.CustomShape">
      <g id="id4">
       <path fill="rgb(238,238,238)" stroke="none" d="M 8950,1600 C 8695,1600 8440,1855 8440,2110 L 8440,5990 C 8440,6245 8695,6501 8950,6501 L 10990,6501 C 11245,6501 11501,6245 11501,5990 L 11501,2110 C 11501,1855 11245,1600 10990,1600 L 8950,1600 Z M 8440,1600 L 8440,1600 Z M 11501,6501 L 11501,6501 Z"/>
       <path fill="none" stroke="rgb(0,0,0)" d="M 8950,1600 C 8695,1600 8440,1855 8440,2110 L 8440,5990 C 8440,6245 8695,6501 8950,6501 L 10990,6501 C 11245,6501 11501,6245 11501,5990 L 11501,2110 C 11501,1855 11245,1600 10990,1600 L 8950,1600 Z"/>
       <path fill="none" stroke="rgb(0,0,0)" d="M 8440,1600 L 8440,1600 Z"/>
       <path fill="none" stroke="rgb(0,0,0)" d="M 11501,6501 L 11501,6501 Z"/>
      </g>
     </g>
     <g class="com.sun.star.drawing.LineShape">
      <g id="id5">
       <path fill="none" stroke="rgb(0,0,0)" d="M 5150,3450 L 7520,3450"/>
       <path fill="rgb(0,0,0)" stroke="none" d="M 7950,3450 L 7500,3300 7500,3600 7950,3450 Z"/>
      </g>
     </g>
     <g class="com.sun.star.drawing.LineShape">
      <g id="id6">
       <path fill="none" stroke="rgb(0,0,0)" d="M 7950,4150 L 5580,4150"/>
       <path fill="rgb(0,0,0)" stroke="none" d="M 5150,4150 L 5600,4300 5600,4000 5150,4150 Z"/>
      </g>
     </g>
     <g class="com.sun.star.drawing.TextShape">
      <g id="id7">
       <text class="TextShape"><tspan class="TextParagraph" font-family="Liberation Sans, sans-serif" font-size="423px" font-weight="400"><tspan class="TextPosition" x="5136" y="2711"><tspan fill="rgb(0,0,0)" stroke="none">HTTP-Request </tspan></tspan><tspan class="TextPosition" x="5928" y="3185"><tspan fill="rgb(0,0,0)" stroke="none">(URL) </tspan></tspan></tspan></text>
      </g>
     </g>
     <g class="com.sun.star.drawing.TextShape">
      <g id="id8">
       <text class="TextShape"><tspan class="TextParagraph" font-family="Liberation Sans, sans-serif" font-size="423px" font-weight="400"><tspan class="TextPosition" x="5011" y="4810"><tspan fill="rgb(0,0,0)" stroke="none">HTTP-Response </tspan></tspan><tspan class="TextPosition" x="6180" y="5284"><tspan fill="rgb(0,0,0)" stroke="none">(file)</tspan></tspan></tspan></text>
      </g>
     </g>
     <g class="com.sun.star.drawing.CustomShape">
      <g id="id9">
       <path fill="rgb(204,204,204)" stroke="none" d="M 12900,2289 C 12900,2129 13442,1970 13985,1970 14528,1970 15071,2129 15071,2289 L 15071,3681 C 15071,3841 14528,4001 13985,4001 13442,4001 12900,3841 12900,3681 L 12900,2289 Z M 12900,1970 L 12900,1970 Z M 15071,4001 L 15071,4001 Z"/>
       <path fill="none" stroke="rgb(0,0,0)" d="M 12900,2289 C 12900,2129 13442,1970 13985,1970 14528,1970 15071,2129 15071,2289 L 15071,3681 C 15071,3841 14528,4001 13985,4001 13442,4001 12900,3841 12900,3681 L 12900,2289 Z"/>
       <path fill="none" stroke="rgb(0,0,0)" d="M 12900,1970 L 12900,1970 Z"/>
       <path fill="none" stroke="rgb(0,0,0)" d="M 15071,4001 L 15071,4001 Z"/>
       <path fill="rgb(204,204,204)" stroke="none" d="M 12900,2289 C 12900,2449 13442,2609 13985,2609 14528,2609 15071,2449 15071,2289 L 12900,2289 Z M 12900,1970 L 12900,1970 Z M 15071,4001 L 15071,4001 Z"/>
       <path fill="none" stroke="rgb(0,0,0)" d="M 12900,2289 C 12900,2449 13442,2609 13985,2609 14528,2609 15071,2449 15071,2289"/>
       <path fill="none" stroke="rgb(0,0,0)" d="M 12900,1970 L 12900,1970 Z"/>
       <path fill="none" stroke="rgb(0,0,0)" d="M 15071,4001 L 15071,4001 Z"/>
       <text class="TextShape"><tspan class="TextParagraph" font-family="Liberation Sans, sans-serif" font-size="423px" font-weight="400"><tspan class="TextPosition" x="13075" y="3293"><tspan fill="rgb(0,0,0)" stroke="none">Database</tspan></tspan></tspan></text>
      </g>
     </g>
     <g class="com.sun.star.drawing.CustomShape">
      <g id="id10">
       <path fill="rgb(204,204,204)" stroke="none" d="M 14850,6500 L 12900,6500 12900,5000 16800,5000 16800,6500 14850,6500 Z"/>
       <path fill="none" stroke="rgb(0,0,0)" d="M 14850,6500 L 12900,6500 12900,5000 16800,5000 16800,6500 14850,6500 Z"/>
       <text class="TextShape"><tspan class="TextParagraph" font-family="Liberation Sans, sans-serif" font-size="423px" font-weight="400"><tspan class="TextPosition" x="13705" y="5898"><tspan fill="rgb(0,0,0)" stroke="none">Applications</tspan></tspan></tspan></text>
      </g>
     </g>
     <g class="com.sun.star.drawing.LineShape">
      <g id="id11">
       <path fill="none" stroke="rgb(0,0,0)" d="M 13200,5000 L 13200,6500"/>
      </g>
     </g>
     <g class="com.sun.star.drawing.LineShape">
      <g id="id12">
       <path fill="none" stroke="rgb(0,0,0)" d="M 16500,5000 L 16500,6500"/>
      </g>
     </g>
     <g class="com.sun.star.drawing.CustomShape">
      <g id="id13">
       <path fill="rgb(204,204,204)" stroke="none" d="M 9985,5800 L 8599,5800 8599,4700 11370,4700 11370,5800 9985,5800 Z"/>
       <path fill="none" stroke="rgb(0,0,0)" d="M 9985,5800 L 8599,5800 8599,4700 11370,4700 11370,5800 9985,5800 Z"/>
       <text class="TextShape"><tspan class="TextParagraph" font-family="Liberation Sans, sans-serif" font-size="423px" font-weight="400"><tspan class="TextPosition" x="8841" y="5161"><tspan fill="rgb(0,0,0)" stroke="none">Server-side </tspan></tspan></tspan><tspan class="TextParagraph" font-family="Liberation Sans, sans-serif" font-size="423px" font-weight="400"><tspan class="TextPosition" x="9066" y="5635"><tspan fill="rgb(0,0,0)" stroke="none">Programs</tspan></tspan></tspan></text>
      </g>
     </g>
     <g class="com.sun.star.drawing.LineShape">
      <g id="id14">
       <path fill="none" stroke="rgb(0,0,0)" d="M 8805,4700 L 8805,5800"/>
      </g>
     </g>
     <g class="com.sun.star.drawing.LineShape">
      <g id="id15">
       <path fill="none" stroke="rgb(0,0,0)" d="M 11200,4700 L 11200,5800"/>
      </g>
     </g>
     <g class="com.sun.star.drawing.CustomShape">
      <g id="id16">
       <path fill="rgb(204,204,204)" stroke="none" d="M 8900,2500 L 11101,2500 11101,4250 10825,4501 8900,4501 8900,2500 Z M 8900,2500 L 8900,2500 Z M 11101,4501 L 11101,4501 Z"/>
       <path fill="none" stroke="rgb(0,0,0)" d="M 8900,2500 L 11101,2500 11101,4250 10825,4501 8900,4501 8900,2500 Z"/>
       <path fill="none" stroke="rgb(0,0,0)" d="M 8900,2500 L 8900,2500 Z"/>
       <path fill="none" stroke="rgb(0,0,0)" d="M 11101,4501 L 11101,4501 Z"/>
       <path fill="rgb(163,163,163)" stroke="none" d="M 10825,4501 L 10897,4250 C 10965,4286 10963,4266 11101,4250 L 10825,4501 Z M 8900,2500 L 8900,2500 Z M 11101,4501 L 11101,4501 Z"/>
       <path fill="none" stroke="rgb(0,0,0)" d="M 10825,4501 L 10897,4250 C 10965,4286 10963,4266 11101,4250 L 10825,4501 Z"/>
       <path fill="none" stroke="rgb(0,0,0)" d="M 8900,2500 L 8900,2500 Z"/>
       <path fill="none" stroke="rgb(0,0,0)" d="M 11101,4501 L 11101,4501 Z"/>
       <text class="TextShape"><tspan class="TextParagraph" font-family="Liberation Sans, sans-serif" font-size="423px" font-weight="400"><tspan class="TextPosition" x="9306" y="3057"><tspan fill="rgb(0,0,0)" stroke="none">HTML, </tspan></tspan></tspan><tspan class="TextParagraph" font-family="Liberation Sans, sans-serif" font-size="423px" font-weight="400"><tspan class="TextPosition" x="9283" y="3531"><tspan fill="rgb(0,0,0)" stroke="none">Forms, </tspan></tspan></tspan><tspan class="TextParagraph" font-family="Liberation Sans, sans-serif" font-size="423px" font-weight="400"><tspan class="TextPosition" x="9292" y="4005"><tspan fill="rgb(0,0,0)" stroke="none">Applets</tspan></tspan></tspan></text>
      </g>
     </g>
     <g class="com.sun.star.drawing.LineShape">
      <g id="id17">
       <path fill="none" stroke="rgb(0,0,0)" d="M 11714,4607 L 12586,3793"/>
       <path fill="rgb(0,0,0)" stroke="none" d="M 11400,4900 L 11831,4703 11627,4483 11400,4900 Z"/>
       <path fill="rgb(0,0,0)" stroke="none" d="M 12900,3500 L 12469,3697 12673,3917 12900,3500 Z"/>
      </g>
     </g>
     <g class="com.sun.star.drawing.LineShape">
      <g id="id18">
       <path fill="none" stroke="rgb(0,0,0)" d="M 11810,5528 L 12590,5772"/>
       <path fill="rgb(0,0,0)" stroke="none" d="M 11400,5400 L 11785,5677 11874,5391 11400,5400 Z"/>
       <path fill="rgb(0,0,0)" stroke="none" d="M 13000,5900 L 12615,5623 12526,5909 13000,5900 Z"/>
      </g>
     </g>
     <g class="com.sun.star.drawing.TextShape">
      <g id="id19">
       <text class="TextShape"><tspan class="TextParagraph" font-family="Liberation Sans, sans-serif" font-size="423px" font-weight="700"><tspan class="TextPosition" x="8850" y="2210"><tspan fill="rgb(0,0,0)" stroke="none">Web server</tspan></tspan></tspan></text>
      </g>
     </g>
    </g>
   </g>
  </g>
 </g>
</svg>